<?xml version="1.0" encoding="UTF-8" standalone="no"?>
<svg xmlns="http://www.w3.org/2000/svg" width="512" height="512" viewBox="0 0 512 512">
  <defs>
    <linearGradient id="grad1" x1="0%" y1="0%" x2="100%" y2="100%">
      <stop offset="0%" style="stop-color:#4a86e8;stop-opacity:1" />
      <stop offset="100%" style="stop-color:#3a66c8;stop-opacity:1" />
    </linearGradient>
    <filter id="shadow" x="-10%" y="-10%" width="120%" height="120%">
      <feDropShadow dx="0" dy="4" stdDeviation="10" flood-color="#000" flood-opacity="0.3"/>
    </filter>
  </defs>
  
  <!-- Background Circle -->
  <circle cx="256" cy="256" r="240" fill="url(#grad1)" filter="url(#shadow)"/>
  
  <!-- Dollar Sign -->
  <path d="M256 120 C 230 120, 210 140, 210 170 C 210 200, 230 220, 256 220 C 282 220, 302 240, 302 270 C 302 300, 282 320, 256 320 C 230 320, 210 300, 210 270" 
        stroke="#FFFFFF" stroke-width="24" fill="none" stroke-linecap="round"/>
  
  <!-- Vertical Line -->
  <line x1="256" y1="100" x2="256" y2="120" stroke="#FFFFFF" stroke-width="24" stroke-linecap="round"/>
  <line x1="256" y1="320" x2="256" y2="340" stroke="#FFFFFF" stroke-width="24" stroke-linecap="round"/>
  
  <!-- Graph Lines -->
  <polyline points="130,380 180,350 230,370 280,330 330,360 380,320" 
            stroke="#FFFFFF" stroke-width="12" fill="none" stroke-linecap="round" stroke-linejoin="round"/>
  
  <!-- Dots -->
  <circle cx="180" cy="350" r="8" fill="#FFFFFF"/>
  <circle cx="230" cy="370" r="8" fill="#FFFFFF"/>
  <circle cx="280" cy="330" r="8" fill="#FFFFFF"/>
  <circle cx="330" cy="360" r="8" fill="#FFFFFF"/>
</svg>
